<?xml version="1.0" standalone="no"?>
<!DOCTYPE svg PUBLIC "-//W3C//DTD SVG 20010904//EN"
 "http://www.w3.org/TR/2001/REC-SVG-20010904/DTD/svg10.dtd">
<svg version="1.0" xmlns="http://www.w3.org/2000/svg"
 width="460.000000pt" height="460.000000pt" viewBox="0 0 460.000000 460.000000"
 preserveAspectRatio="xMidYMid meet">

<g transform="translate(0.000000,460.000000) scale(0.100000,-0.100000)"
fill="#000000" stroke="none">
<path d="M3000 3178 c-6 -13 -39 -99 -74 -193 l-63 -170 -117 -3 c-108 -2
-116 -4 -116 -22 0 -19 7 -20 138 -20 l137 0 26 73 c15 39 42 116 60 169 19
54 37 98 40 98 4 0 18 -35 32 -77 41 -122 177 -493 226 -616 9 -22 16 -28 37
-25 28 3 40 27 120 251 l46 127 149 0 c143 0 149 1 149 20 0 20 -5 20 -171 18
l-171 -3 -44 -125 c-83 -236 -81 -233 -102 -160 -16 53 -116 330 -166 460 -14
36 -38 99 -53 140 -23 59 -33 76 -51 78 -15 2 -25 -4 -32 -20z"/>
<path d="M1231 2808 c-57 -145 -114 -288 -127 -318 -39 -94 -75 -183 -91 -227
l-15 -43 -256 -2 -257 -3 -3 -47 -3 -48 308 0 309 0 13 38 c13 36 134 360 193
517 17 44 42 113 57 152 25 70 41 92 41 57 0 -9 13 -55 29 -103 15 -47 45
-140 66 -206 21 -66 59 -186 85 -266 26 -80 51 -160 55 -177 l7 -32 69 0 69 0
0 190 0 191 131 -3 131 -3 29 -80 c16 -44 38 -102 48 -130 11 -27 52 -138 92
-245 39 -107 92 -251 118 -320 l46 -125 60 0 59 0 46 125 c26 69 78 210 116
313 l69 188 3 -315 2 -316 60 0 60 0 0 480 0 480 -69 0 -69 0 -16 -42 c-18
-50 -46 -131 -121 -348 -29 -85 -67 -195 -85 -245 -17 -49 -36 -106 -42 -124
-9 -30 -11 -32 -20 -17 -5 9 -52 142 -104 294 -52 152 -108 316 -124 363 -17
48 -30 89 -30 92 0 2 12 8 26 11 14 4 47 28 73 54 56 56 76 114 75 212 -3 148
-88 246 -242 279 -29 6 -143 11 -252 11 l-200 0 -1 -292 0 -293 -39 115 c-22
63 -66 194 -99 290 l-60 175 -58 3 -59 3 -103 -263z m888 134 c19 -9 48 -34
65 -55 29 -36 31 -45 31 -116 0 -70 -3 -81 -29 -115 -45 -59 -79 -69 -253 -74
l-153 -4 0 191 0 191 153 0 c125 0 158 -3 186 -18z"/>
<path d="M3530 2163 l-1 -378 -20 25 c-19 23 -123 180 -347 525 -46 72 -94
145 -105 162 -21 31 -25 33 -84 33 l-63 0 0 -480 0 -480 60 0 60 0 0 365 c0
201 3 365 8 365 4 -1 41 -54 83 -118 42 -64 114 -175 160 -247 47 -71 112
-172 144 -223 96 -150 87 -142 161 -142 l64 0 0 435 0 435 246 0 245 0 -3 48
-3 47 -302 3 -303 2 0 -377z"/>
</g>
</svg>
